<svg xmlns="http://www.w3.org/2000/svg" xmlns:xlink="http://www.w3.org/1999/xlink" width="76" height="84.176" viewBox="0 0 76 84.176">
  <defs>
    <style>
      .cls-1 {
        fill: url(#linear-gradient);
      }

      .cls-2 {
        fill: #086778;
        font-size: 7px;
        font-family: Tajawal-Regular, Tajawal;
      }

      .cls-3 {
        filter: url(#جمعية_عطاء_الخيريّة_لرعاية_ذوي_الاحتياج);
      }

      .cls-4 {
        filter: url(#Path_4);
      }

      .cls-5 {
        filter: url(#Path_3);
      }
    </style>
    <linearGradient id="linear-gradient" x1="0.5" x2="0.5" y2="1" gradientUnits="objectBoundingBox">
      <stop offset="0" stop-color="#114b5f"/>
      <stop offset="0.448" stop-color="#0a6374"/>
      <stop offset="1" stop-color="#047686"/>
    </linearGradient>
    <filter id="Path_3" x="14.048" y="14.237" width="24.307" height="33.189" filterUnits="userSpaceOnUse">
      <feOffset dy="3" input="SourceAlpha"/>
      <feGaussianBlur stdDeviation="3" result="blur"/>
      <feFlood flood-opacity="0.161"/>
      <feComposite operator="in" in2="blur"/>
      <feComposite in="SourceGraphic"/>
    </filter>
    <filter id="Path_4" x="11.911" y="0" width="52.178" height="60.782" filterUnits="userSpaceOnUse">
      <feOffset dy="3" input="SourceAlpha"/>
      <feGaussianBlur stdDeviation="3" result="blur-2"/>
      <feFlood flood-opacity="0.161"/>
      <feComposite operator="in" in2="blur-2"/>
      <feComposite in="SourceGraphic"/>
    </filter>
    <filter id="جمعية_عطاء_الخيريّة_لرعاية_ذوي_الاحتياج" x="0" y="48.176" width="76" height="36" filterUnits="userSpaceOnUse">
      <feOffset dy="3" input="SourceAlpha"/>
      <feGaussianBlur stdDeviation="3" result="blur-3"/>
      <feFlood flood-opacity="0.161"/>
      <feComposite operator="in" in2="blur-3"/>
      <feComposite in="SourceGraphic"/>
    </filter>
  </defs>
  <g id="Named_Logo" data-name="Named Logo" transform="translate(9 1.505)">
    <g id="logo" transform="translate(11.911)">
      <path id="Path_1" data-name="Path 1" class="cls-1" d="M22.433,46.41a11.409,11.409,0,0,1,1.944,3.92,7.343,7.343,0,0,1-.392,4.445A8.091,8.091,0,0,1,21.1,58.088a19.666,19.666,0,0,1-2.6,1.52c-.324.169-.666.333-1.328.68-.739.383-1.369.73-1.643.872a16.31,16.31,0,0,0-5.381,4.687l-.032.055.99-1.625a15.081,15.081,0,0,1,3.97-3.884c3.373-2.464,5.39-3.943,6.531-5.8C22.506,53.128,23.345,50.659,22.433,46.41Z" transform="translate(-5.496 -25.221)"/>
      <path id="Path_2" data-name="Path 2" class="cls-1" d="M13.554,30.5s5.476-4.929.456-13.527a11.345,11.345,0,0,1-1-1.711,11.911,11.911,0,0,1-1.022-3.957,10.514,10.514,0,0,1,2.245-6.389s2.487-3.4,2.852-4.728c0-.046.055-.214.073-.21a9.661,9.661,0,0,1-.347,2.282A9.422,9.422,0,0,1,15.48,4.89a12.459,12.459,0,0,0-1.465,4.135,10.686,10.686,0,0,0,.876,5.586c.872,2.332,1.529,2.35,2.41,4.819a10.127,10.127,0,0,1,.849,4.244,7.587,7.587,0,0,1-2.793,5.75C13.718,30.611,13.554,30.5,13.554,30.5Z" transform="translate(-6.507 0.02)"/>
      <g class="cls-5" transform="matrix(1, 0, 0, 1, -20.91, -1.5)">
        <path id="Path_3-2" data-name="Path 3" class="cls-1" d="M7.582,48.243a1.638,1.638,0,0,0,.913.411c.913.087,1.9-.726,2.382-2.054a5.093,5.093,0,0,1,.082,1.438c-.132,1.488-.913,2.556-2.464,4.322a24.914,24.914,0,0,1-3.82,3.852,7.753,7.753,0,0,0,1.78-3.195,7.014,7.014,0,0,0,.027-2.209,16.881,16.881,0,0,0-.666-2.492.364.364,0,0,0-.037-.173,7.247,7.247,0,0,1,.283-3.719c.712-1.889,2.656-3.733,3.651-3.345.557.214.794,1.118.739,1.766a2.282,2.282,0,0,1-1.027,1.643,2.588,2.588,0,0,0-2.218,1.889,2.5,2.5,0,0,0,.374,1.867Z" transform="translate(18.38 -20.79)"/>
      </g>
      <g class="cls-4" transform="matrix(1, 0, 0, 1, -20.91, -1.5)">
        <path id="Path_4-2" data-name="Path 4" class="cls-1" d="M30.483,46.873a9.594,9.594,0,0,1-3.432.63,5.691,5.691,0,0,1-1.561-.288,5.476,5.476,0,0,1-2.259-1.547,5.12,5.12,0,0,1-1.2-1.99,1.757,1.757,0,0,1-.128-1.305c.173-.392.57-.662,2.282-.913,1.469-.219,1.739-.073,2.807-.205a7.562,7.562,0,0,0,3.806-1.369,6.079,6.079,0,0,0,1.6-1.867c.027-.1.064-.283-.032-.383s-.548-.137-.63.027A3.617,3.617,0,0,1,28.585,39.2a17.308,17.308,0,0,0-5.23.657c-1.451.52-2.683,2.218-2.574,4.71a4.966,4.966,0,0,0,2.437,3.779s.246.356-.027.493-2,.685-2.9.958a21.586,21.586,0,0,1-4.819.383.073.073,0,0,1-.037-.041c-.055-.2,1.2-.456,2.213-1.369a4.5,4.5,0,0,0,.753-.913,3.806,3.806,0,0,0,.794-2.314,3.491,3.491,0,0,0-1.1-2.232,4.363,4.363,0,0,0-2.327-1.2,6.084,6.084,0,0,0-3.195.3,11.2,11.2,0,0,0-2.492,1.054,15.27,15.27,0,0,0-3.039,2.149,14.517,14.517,0,0,1-2.232,1.9,3.528,3.528,0,0,1-1.684.507.963.963,0,0,1-.648-.178,1.086,1.086,0,0,1-.338-.643,2.008,2.008,0,0,1-.041-.78,4.564,4.564,0,0,1,.7-1.825,21.1,21.1,0,0,1,4.6-4.08,59.563,59.563,0,0,0,5.02-4.217,10.213,10.213,0,0,0,3.153-3.984,7.332,7.332,0,0,0,.7-4.993,9.127,9.127,0,0,0-1.305-2.524,22.878,22.878,0,0,0-1.689-2.1A19.368,19.368,0,0,1,11.024,19.5a12.016,12.016,0,0,1-1.241-4.929,15.288,15.288,0,0,1,.392-4.737,11.756,11.756,0,0,0-1.369,4.9c0,.041,0,.1,0,.173a12.048,12.048,0,0,0,.529,3.906,13.111,13.111,0,0,0,1.109,2.442c1.629,3.049,2.588,3.482,3.007,5.476a8.059,8.059,0,0,1,.137,2.282,8.443,8.443,0,0,1-.762,2.775,9.159,9.159,0,0,1-1.584,2.565,38.791,38.791,0,0,1-6.07,5.4,15.735,15.735,0,0,0-3.45,3.195,6.122,6.122,0,0,0-1.73,3.779,3.519,3.519,0,0,0,0,.383,4.856,4.856,0,0,0,.333,1.451c.794,1.93,4.08,2.985,4.08,2.985,2.282.735,7.922,1.862,15.936.219,5.978-1.228,10.04-3.331,11.774-3.806a2.337,2.337,0,0,0,.666-.288A2.944,2.944,0,0,0,33.8,46.5a5.741,5.741,0,0,0,.37-.863ZM11.722,49.264c-2.41.256-2.861.274-3.195.288a27,27,0,0,1-3.131-.1l-.84-.041s4.81-4.285,7.644-4.824a4.413,4.413,0,0,1,3.112.251,3.523,3.523,0,0,1,1.214,1.173,1.9,1.9,0,0,1,.37,1.52,1.369,1.369,0,0,1-.205.37C15.966,48.794,13.114,49.114,11.722,49.264Z" transform="translate(20.92 -3.83)"/>
      </g>
    </g>
    <g class="cls-3" transform="matrix(1, 0, 0, 1, -9, -1.5)">
      <text id="جمعية_عطاء_الخيريّة_لرعاية_ذوي_الاحتياج-2" data-name="جمعية عطاء الخيريّة
لرعاية ذوي الاحتياج" class="cls-2" transform="translate(38 61.18)"><tspan x="-28.822" y="0">جمعية عطاء الخيريّة</tspan><tspan y="0"></tspan><tspan x="-26.023" y="8">لرعاية ذوي الاحتياج</tspan></text>
    </g>
  </g>
</svg>
