<?xml version="1.0" encoding="iso-8859-1"?>
<!-- Generator: Adobe Illustrator 19.0.0, SVG Export Plug-In . SVG Version: 6.00 Build 0)  -->
<svg version="1.1" id="Capa_1" xmlns="http://www.w3.org/2000/svg" xmlns:xlink="http://www.w3.org/1999/xlink" x="0px" y="0px"
	 viewBox="0 0 512.001 512.001" style="enable-background:new 0 0 512.001 512.001;" xml:space="preserve">
<path style="fill:#CCF7F5;" d="M239.974,347.308c0,0-59.152,9.771-83.048,19.69c25.812-61.471,69.414-132.625,141.896-181.224
	c0.092,0.026,0.191,0.053,0.284,0.079c0.005-0.035,0.009-0.069,0.014-0.105c0.685-5.788-22.65-39.959-23.116-40.151l-2.253,1.89
	c-46.59,31.193-87.014,73.694-119.592,125.424c-1.044-6.193-4.691-21.392-4.353-21.9c-7.171,1.489-36.298,9.983-44.167,13.049
	c8.207,35.042,8.506,73.848-0.247,108.627c-23.325,63.073-29.095,111.625-29.347,113.824c-1.437,12.556,7.577,23.903,20.133,25.339
	c0.885,0.101,1.762,0.151,2.632,0.151c11.475,0,21.373-8.612,22.708-20.285c0.082-0.711,3.083-25.142,13.199-61.02
	c30.16-20.43,64.86-33.196,101.185-37.26l4.78-0.696C240.474,389.334,241.554,353.487,239.974,347.308z"/>
<path style="fill:#4CD6D5;" d="M493.765,12.406c-1.474-0.523-36.534-12.805-77.104-12.396c-30.337,0.305-56.214,7.512-76.913,21.421
	c-49.141,33.017-62.153,99.882-65.482,127.233c-0.262,0.178,0.261-0.18,0,0c-1.98,20.089-2.421,31.553,35.988,40.666
	c14.193,3.242,33.934,6.521,55.23,6.307c30.335-0.305,56.215-7.512,76.916-21.418c61.345-41.218,66.383-135.206,66.567-139.187
	C509.434,24.966,503.261,15.778,493.765,12.406z"/>
<path style="fill:#06ABA4;" d="M508.969,35.031c0.301-6.489-2.17-12.602-6.498-17.037L276.251,171.701
	c4.017,7.191,13.438,12.747,34.004,17.626c14.193,3.242,33.934,6.521,55.23,6.307c30.335-0.305,56.215-7.512,76.916-21.418
	C503.745,132.999,508.782,39.011,508.969,35.031z"/>
<path style="fill:#4CD6D5;" d="M490.552,336.06c-1.034-1.173-25.715-28.938-61.375-48.286
	c-26.666-14.468-52.786-20.739-77.634-18.635c-58.991,4.992-102.843,57.119-119.039,79.41c-0.316,0.029,0.316-0.031,0,0
	c-11.488,16.598-17.442,26.405,11.705,53.027c10.832,9.728,26.494,22.183,45.212,32.34c26.664,14.468,52.787,20.739,77.636,18.638
	c73.643-6.232,123.698-85.942,125.794-89.332C498.147,354.649,497.213,343.622,490.552,336.06z"/>
<path style="fill:#06ABA4;" d="M492.85,363.221c3.414-5.526,4.225-12.07,2.595-18.049l-272.4,24.48
	c0.018,8.237,5.555,17.669,21.161,31.925c10.832,9.728,26.495,22.183,45.214,32.34c26.664,14.468,52.787,20.739,77.636,18.638
	C440.699,446.32,490.755,366.612,492.85,363.221z"/>
<path style="fill:#4CD6D5;" d="M48.206,13.106c-0.972,1.225-23.935,30.427-36.673,68.947c-9.525,28.803-11.076,55.622-4.614,79.706
	c15.345,57.18,74.405,91.123,99.208,103.121c0.085,0.305-0.085-0.305,0,0c18.368,8.371,29.073,12.498,50.122-20.897
	c7.659-12.382,17.149-30,23.834-50.219c9.525-28.802,11.078-55.623,4.615-79.709C165.543,42.676,78.239,7.504,74.531,6.041
	C65.159,2.343,54.469,5.213,48.206,13.106z"/>
<path style="fill:#06ABA4;" d="M74.531,6.041c-6.043-2.383-12.627-2.025-18.224,0.638l72.263,263.779
	c8.104-1.474,16.409-8.591,27.679-26.474c7.659-12.382,17.149-30,23.834-50.219c9.525-28.802,11.078-55.623,4.615-79.709
	C165.543,42.676,78.239,7.504,74.531,6.041z"/>
<g>
</g>
<g>
</g>
<g>
</g>
<g>
</g>
<g>
</g>
<g>
</g>
<g>
</g>
<g>
</g>
<g>
</g>
<g>
</g>
<g>
</g>
<g>
</g>
<g>
</g>
<g>
</g>
<g>
</g>
</svg>
