<svg xmlns="http://www.w3.org/2000/svg" width="26.467" height="27.932" viewBox="0 0 26.467 27.932"><g transform="translate(-28.94 -19.762)"><path d="M26.259,23.763a1.371,1.371,0,0,0-.839-.7,1.156,1.156,0,0,0-.31-.043,1.233,1.233,0,0,0-.715.234l-6.074,4.22,0,.062a.609.609,0,0,1,0,.119l0,.086-.017.024,0,.029a2.3,2.3,0,0,1-.517,1.147,1.722,1.722,0,0,1-1.319.631H10.961a.4.4,0,0,1,0-.784h5.507a1.119,1.119,0,0,0,.843-.4,1.564,1.564,0,0,0,.331-.731l.012-.091V27.5a1.694,1.694,0,0,0,0-.2.367.367,0,0,1,0-.076,1.3,1.3,0,0,0-1.245-1.19H14.05a4.862,4.862,0,0,1-2.985-1.047A6.111,6.111,0,0,0,8.6,23.772a3.919,3.919,0,0,0-.819-.081c-.112,0-.227,0-.351.01-.194.01-.48.01-.8.01-.434,0-.93,0-1.327-.01h-.1l.7,8.071v.067l.054.024a17.433,17.433,0,0,1,1.89,1.008l.041.024a12.907,12.907,0,0,1,1.087.7,6.285,6.285,0,0,0,3.246.917A5.858,5.858,0,0,0,15.567,33.5l10.254-7.593a1.639,1.639,0,0,0,.645-1.381A1.754,1.754,0,0,0,26.259,23.763ZM5.247,32.116,4.494,23.5v-.029l-.008-.019a.4.4,0,0,1-.025-.153c0-.029,0-.048.008-.115l-.1-1.1L1.282,22.6,0,34.964l5.375-1.333L5.255,32.2Zm13.128-17.7a1.84,1.84,0,0,0-.393-.33,3.873,3.873,0,0,0-.434-.229c-.1-.048-.422-.182-.422-.182a1.886,1.886,0,0,1-.347-.177.74.74,0,0,1-.219-.21.477.477,0,0,1-.07-.272.507.507,0,0,1,.033-.186.335.335,0,0,1,.091-.139.56.56,0,0,1,.2-.105,1.159,1.159,0,0,1,.314-.038,1.291,1.291,0,0,1,.372.053,2.517,2.517,0,0,1,.314.124c.1.043.165.086.227.119a.41.41,0,0,0,.211.076.158.158,0,0,0,.116-.043.272.272,0,0,0,.083-.124.812.812,0,0,0,.033-.186c0-.062.008-.139.008-.239l0-.2a1.073,1.073,0,0,0-.017-.139.526.526,0,0,0-.041-.158.459.459,0,0,0-.062-.091.541.541,0,0,0-.165-.129c-.062-.029-.128-.062-.2-.091a1.419,1.419,0,0,0-.24-.076,1.193,1.193,0,0,0-.124-.033l.066-.736a.428.428,0,0,0-.017-.134.219.219,0,0,0-.112-.143.5.5,0,0,0-.165-.057,1.492,1.492,0,0,0-.223-.014,1.562,1.562,0,0,0-.174.01.317.317,0,0,0-.145.043.3.3,0,0,0-.1.091.275.275,0,0,0-.037.134l-.066.793a1.957,1.957,0,0,0-.538.167,1.481,1.481,0,0,0-.5.368,1.586,1.586,0,0,0-.31.535,2.041,2.041,0,0,0-.108.669,1.913,1.913,0,0,0,.108.693,1.559,1.559,0,0,0,.281.5,1.7,1.7,0,0,0,.393.339,4.154,4.154,0,0,0,.426.229c.141.062.281.124.418.177a1.747,1.747,0,0,1,.343.182.709.709,0,0,1,.219.205.462.462,0,0,1,.066.268.511.511,0,0,1-.17.406.9.9,0,0,1-.6.167,1.83,1.83,0,0,1-.48-.062,2.178,2.178,0,0,1-.347-.139,2.435,2.435,0,0,1-.24-.148.394.394,0,0,0-.211-.081.243.243,0,0,0-.149.048.32.32,0,0,0-.087.134,1.077,1.077,0,0,0-.041.2c0,.072,0,.158,0,.268a1.634,1.634,0,0,0,.021.33.428.428,0,0,0,.1.225.682.682,0,0,0,.17.134,2.123,2.123,0,0,0,.219.115,1.78,1.78,0,0,0,.285.1c.066.019.136.038.207.053l-.066.774a.415.415,0,0,0,.012.167.3.3,0,0,0,.124.143.61.61,0,0,0,.153.048,1.443,1.443,0,0,0,.219.01.851.851,0,0,0,.174-.01.3.3,0,0,0,.128-.038.214.214,0,0,0,.124-.119.3.3,0,0,0,.029-.115l.074-.846a2.354,2.354,0,0,0,.612-.167,1.724,1.724,0,0,0,.566-.392,1.776,1.776,0,0,0,.372-.588,2.149,2.149,0,0,0,.128-.76,2.026,2.026,0,0,0-.108-.683A2.306,2.306,0,0,0,18.375,14.421Z" transform="translate(28.94 12.73)" fill="#03716e"/><path d="M31.38,2.12a7.308,7.308,0,1,0,7.305,7.305A7.317,7.317,0,0,0,31.38,2.12Zm0,13.08a5.775,5.775,0,1,1,5.775-5.775A5.785,5.785,0,0,1,31.38,15.2Z" transform="translate(14.536 17.642)" fill="#03716e"/></g></svg>