<?xml version="1.0" encoding="iso-8859-1"?>
<!-- Generator: Adobe Illustrator 19.0.0, SVG Export Plug-In . SVG Version: 6.00 Build 0)  -->
<svg version="1.1" id="Layer_1" xmlns="http://www.w3.org/2000/svg" xmlns:xlink="http://www.w3.org/1999/xlink" x="0px" y="0px"
	 viewBox="0 0 512 512" style="enable-background:new 0 0 512 512;" xml:space="preserve">
<rect x="42.281" y="223.32" style="fill:#006098;" width="427.433" height="277.508"/>
<rect x="215.092" y="223.32" style="fill:#BA5061;" width="81.811" height="277.508"/>
<rect x="249.398" y="223.32" style="fill:#D9D9D9;" width="13.211" height="277.508"/>
<path style="fill:#D85C72;" d="M401.04,28.558c-23.189-23.189-60.783-23.189-83.972,0c-16.939,15.673-52.678,79.568-61.068,101.363
	h103.105v-0.003c15.179-0.011,30.354-5.809,41.936-17.389C424.229,89.341,424.229,51.747,401.04,28.558z"/>
<path style="fill:#803743;" d="M401.812,56.602c-16.772-16.771-43.965-16.771-60.737,0c-12.255,11.339-38.104,57.553-44.173,73.318
	h62.2v-0.003c15.179-0.011,30.354-5.809,41.936-17.389c5.703-5.704,9.997-12.281,12.894-19.299
	C415.834,80.259,411.795,66.586,401.812,56.602z"/>
<path style="fill:#D85C72;" d="M110.958,28.558c23.189-23.189,60.783-23.189,83.971,0c16.94,15.673,52.679,79.568,61.068,101.363
	H152.893v-0.003c-15.179-0.011-30.353-5.809-41.936-17.389C87.769,89.341,87.769,51.747,110.958,28.558z"/>
<path style="fill:#803743;" d="M110.187,56.602c16.772-16.771,43.964-16.771,60.737,0c12.253,11.339,38.104,57.553,44.171,73.318
	h-62.2v-0.003c-15.179-0.011-30.353-5.809-41.936-17.389c-5.704-5.704-9.996-12.281-12.894-19.299
	C96.164,80.259,100.203,66.586,110.187,56.602z"/>
<rect x="8.284" y="129.923" style="fill:#00BCB4;" width="495.438" height="93.408"/>
<rect x="215.092" y="129.923" style="fill:#D85C72;" width="81.811" height="93.408"/>
<rect x="249.398" y="129.923" style="fill:#FFFFFF;" width="13.211" height="93.408"/>
<path style="fill:#022A3A;" d="M503.716,121.636H403.385c1.198-1.043,2.377-2.115,3.511-3.249
	c12.78-12.779,19.818-29.77,19.818-47.842c0-18.073-7.038-35.064-19.818-47.844c-12.78-12.78-29.772-19.818-47.844-19.818
	c-18.019,0-34.964,6.998-47.73,19.707c-14.89,13.888-41.203,58.771-55.323,87.304c-14.121-28.533-40.433-73.416-55.323-87.304
	C187.909,9.88,170.965,2.883,152.944,2.883c-18.073,0-35.064,7.038-47.844,19.818S85.282,52.472,85.282,70.545
	c0,18.072,7.039,35.064,19.819,47.842c1.134,1.134,2.313,2.207,3.511,3.249H8.284c-4.575,0-8.284,3.709-8.284,8.284v93.405
	c0,4.575,3.709,8.284,8.284,8.284h25.717v269.225c0,4.575,3.709,8.284,8.284,8.284h427.428c4.575,0,8.284-3.709,8.284-8.284V231.609
	h25.72c4.575,0,8.284-3.709,8.284-8.284V129.92C512,125.345,508.291,121.636,503.716,121.636z M405.846,91.091
	c-2.521,5.736-6.101,11.016-10.665,15.579c-9.64,9.64-22.456,14.954-36.084,14.963c-0.014,0-0.028,0.002-0.042,0.002h-49.317
	c9.853-19.876,28.368-51.001,36.962-58.953c0.078-0.073,0.156-0.147,0.231-0.222c13.516-13.516,35.507-13.515,49.021,0
	C403.554,70.061,407.12,80.45,405.846,91.091z M106.151,91.093c-1.275-10.642,2.293-21.032,9.893-28.633
	c13.515-13.514,35.507-13.515,49.021,0c0.076,0.075,0.154,0.149,0.232,0.222c8.594,7.952,27.109,39.076,36.962,58.953h-49.317
	c-0.014,0-0.028-0.002-0.042-0.002c-13.629-0.01-26.444-5.324-36.084-14.963C112.252,102.107,108.673,96.828,106.151,91.093z
	 M206.811,492.55H50.569V231.609H206.81V492.55H206.811z M206.811,215.041H16.568v-76.837h190.244V215.041z M176.67,50.635
	c-19.151-19.037-49.715-19.784-69.777-2.268c2.465-5.108,5.793-9.823,9.922-13.952c9.651-9.65,22.481-14.965,36.128-14.965
	c13.646,0,26.477,5.315,36.127,14.965c0.075,0.076,0.154,0.15,0.232,0.223c13.715,12.689,41.33,60.489,53.994,86.998h-22.721
	C211.766,102.154,188.97,62.141,176.67,50.635z M288.619,492.55h-65.241V231.609h65.241V492.55z M288.619,215.041h-65.241v-76.837
	h65.241V215.041z M268.699,121.636c12.664-26.508,40.279-74.309,53.994-86.998c0.078-0.073,0.157-0.147,0.232-0.223
	c9.65-9.65,22.48-14.965,36.127-14.965s26.478,5.315,36.128,14.965c4.129,4.129,7.457,8.844,9.922,13.952
	c-20.062-17.516-50.625-16.769-69.776,2.268c-12.301,11.507-35.097,51.52-43.905,71.001H268.699z M461.429,492.55H305.186V231.609
	h156.241V492.55H461.429z M495.432,215.041H305.186v-76.837h190.245v76.837H495.432z"/>
<g>
</g>
<g>
</g>
<g>
</g>
<g>
</g>
<g>
</g>
<g>
</g>
<g>
</g>
<g>
</g>
<g>
</g>
<g>
</g>
<g>
</g>
<g>
</g>
<g>
</g>
<g>
</g>
<g>
</g>
</svg>
