<?xml version="1.0" ?><svg width="64px" height="64px" viewBox="0 0 64 64" xmlns="http://www.w3.org/2000/svg"><g id="flat"><rect height="34" style="fill:#7ea82d" width="52" x="6" y="27"/><rect height="4" style="fill:#729c22" width="52" x="6" y="27"/><rect height="12" style="fill:#7ea82d" width="58" x="3" y="15"/><rect height="46" style="fill:#dd4a43" width="12" x="26" y="15"/><path d="M27.658,6.317A6,6,0,0,0,22.292,3H14a6,6,0,0,0,0,12H32Z" style="fill:#dd4a43"/><path d="M32,15H22a6,6,0,0,1-6-6h0a6,6,0,0,1,6-6h.292a6,6,0,0,1,5.366,3.317Z" style="fill:#b0342e"/><path d="M36.342,6.317A6,6,0,0,1,41.708,3H50a6,6,0,0,1,0,12H32Z" style="fill:#dd4a43"/><path d="M32,15H42a6,6,0,0,0,6-6h0a6,6,0,0,0-6-6h-.292a6,6,0,0,0-5.366,3.317Z" style="fill:#b0342e"/><polygon points="38 36 38 15 26 15 26 37 32 22 38 36" style="fill:#d13e37"/><polygon points="21 42 17 37 10 39 20 15 32 15 21 42" style="fill:#dd4a43"/><polygon points="43 42 47 37 54 39 44 15 32 15 43 42" style="fill:#dd4a43"/><rect height="2" style="fill:#e66b65" transform="translate(-14.645 35.51) rotate(-68.547)" width="9.642" x="13.91" y="27.5"/><rect height="2" style="fill:#e66b65" transform="translate(-5.742 33.641) rotate(-68.973)" width="2.143" x="20.544" y="20"/><rect height="9" style="fill:#95c43b" width="2" x="9" y="49"/><rect height="2" style="fill:#95c43b" width="2" x="9" y="45"/></g></svg>