<?xml version="1.0" encoding="iso-8859-1"?>
<!-- Generator: Adobe Illustrator 16.0.0, SVG Export Plug-In . SVG Version: 6.00 Build 0)  -->
<!DOCTYPE svg PUBLIC "-//W3C//DTD SVG 1.1//EN" "http://www.w3.org/Graphics/SVG/1.1/DTD/svg11.dtd">
<svg version="1.1" id="Capa_1" xmlns="http://www.w3.org/2000/svg" xmlns:xlink="http://www.w3.org/1999/xlink" x="0px" y="0px"
	 width="31.938px" height="31.938px" viewBox="0 0 31.938 31.938" style="enable-background:new 0 0 31.938 31.938;"
	 xml:space="preserve">
<g>
	<g>
		<circle cx="16.288" cy="3.602" r="3.602"/>
		<polygon points="25.529,6.865 25.13,5.029 19.311,7.744 17.598,7.744 16.225,9.337 14.898,7.744 12.307,8.231 12.31,8.257 
			6.719,4.697 5.41,6.752 12.653,11.363 13.029,14.759 13.097,16.104 13.285,16.104 13.285,16.922 13.285,17.527 11.765,20.346 
			8.768,18.758 7.59,20.98 7.591,20.98 7.277,21.575 8.064,21.992 8.378,21.398 12.598,23.634 13.775,21.41 13.77,21.407 
			15.863,17.527 16.768,17.527 17.839,21.865 15.308,25.604 15.314,25.607 15.308,25.617 17.908,27.378 18.525,26.468 17.966,26.09 
			20.531,22.297 20.519,22.288 19.345,17.527 19.345,16.922 19.345,16.104 19.574,16.104 20.025,10.202 		"/>
		<rect x="0.928" y="30.223" width="30.082" height="1.715"/>
	</g>
</g>
<g>
</g>
<g>
</g>
<g>
</g>
<g>
</g>
<g>
</g>
<g>
</g>
<g>
</g>
<g>
</g>
<g>
</g>
<g>
</g>
<g>
</g>
<g>
</g>
<g>
</g>
<g>
</g>
<g>
</g>
</svg>
