<svg xmlns="http://www.w3.org/2000/svg" xmlns:xlink="http://www.w3.org/1999/xlink" width="57.36" height="67.268" viewBox="0 0 57.36 67.268"><defs><filter id="a" x="2.461" y="16.395" width="25.263" height="35.492" filterUnits="userSpaceOnUse"><feOffset dy="3" input="SourceAlpha"/><feGaussianBlur stdDeviation="3" result="b"/><feFlood flood-opacity="0.161"/><feComposite operator="in" in2="b"/><feComposite in="SourceGraphic"/></filter><filter id="c" x="0" y="0" width="57.36" height="67.268" filterUnits="userSpaceOnUse"><feOffset dy="3" input="SourceAlpha"/><feGaussianBlur stdDeviation="3" result="d"/><feFlood flood-opacity="0.161"/><feComposite operator="in" in2="d"/><feComposite in="SourceGraphic"/></filter></defs><g transform="translate(9 0.823)"><path d="M24.3,46.41a13.139,13.139,0,0,1,2.239,4.515,8.456,8.456,0,0,1-.452,5.119,9.318,9.318,0,0,1-3.322,3.816,22.645,22.645,0,0,1-2.99,1.75c-.373.194-.767.384-1.529.783-.851.441-1.577.841-1.892,1a18.783,18.783,0,0,0-6.2,5.4l-.037.063,1.14-1.871a17.368,17.368,0,0,1,4.572-4.472c3.884-2.838,6.207-4.541,7.521-6.685C24.384,54.146,25.351,51.3,24.3,46.41Z" transform="translate(-4.795 -22.008)" fill="#fff"/><path d="M13.793,35.129s6.307-5.676.526-15.577a13.065,13.065,0,0,1-1.151-1.971,13.717,13.717,0,0,1-1.177-4.557c-.184-3.574,2.018-6.569,2.586-7.358,0,0,2.864-3.91,3.285-5.445,0-.053.063-.247.084-.242a11.126,11.126,0,0,1-.4,2.628,10.85,10.85,0,0,1-1.535,3.027A14.348,14.348,0,0,0,14.324,10.4a12.306,12.306,0,0,0,1.009,6.433c1,2.686,1.761,2.707,2.775,5.55a11.663,11.663,0,0,1,.978,4.888c-.032.583-.163,4.394-3.216,6.622C13.982,35.255,13.793,35.129,13.793,35.129Z" transform="translate(-5.677 0.02)" fill="#fff"/><g transform="matrix(1, 0, 0, 1, -9, -0.82)" filter="url(#a)"><path d="M8.023,49.337a1.887,1.887,0,0,0,1.051.473c1.051.1,2.192-.836,2.743-2.365a5.865,5.865,0,0,1,.095,1.656c-.152,1.713-1.051,2.943-2.838,4.977a28.692,28.692,0,0,1-4.4,4.436,8.929,8.929,0,0,0,2.05-3.679,8.078,8.078,0,0,0,.032-2.544,19.44,19.44,0,0,0-.767-2.87.42.42,0,0,0-.042-.2,8.346,8.346,0,0,1,.326-4.283c.82-2.176,3.059-4.3,4.2-3.852.641.247.914,1.288.851,2.034a2.628,2.628,0,0,1-1.183,1.892,2.98,2.98,0,0,0-2.554,2.176A2.88,2.88,0,0,0,8.023,49.337Z" transform="translate(6.79 -18.63)" fill="#fff"/></g><g transform="matrix(1, 0, 0, 1, -9, -0.82)" filter="url(#c)"><path d="M35.107,52.489a11.048,11.048,0,0,1-3.952.725,6.554,6.554,0,0,1-1.8-.331,6.307,6.307,0,0,1-2.6-1.782,5.9,5.9,0,0,1-1.387-2.291,2.024,2.024,0,0,1-.147-1.5c.2-.452.657-.762,2.628-1.051,1.692-.252,2-.084,3.232-.237a8.708,8.708,0,0,0,4.383-1.577,7,7,0,0,0,1.845-2.15c.032-.121.074-.326-.037-.441s-.631-.158-.725.032a4.165,4.165,0,0,1-3.626,1.766,19.932,19.932,0,0,0-6.023.757c-1.671.6-3.09,2.554-2.964,5.424a5.719,5.719,0,0,0,2.806,4.352s.284.41-.032.568-2.3.788-3.343,1.1a24.859,24.859,0,0,1-5.55.441.084.084,0,0,1-.042-.047c-.063-.231,1.387-.526,2.549-1.577a5.187,5.187,0,0,0,.867-1.051,4.383,4.383,0,0,0,.914-2.665,4.02,4.02,0,0,0-1.261-2.57A5.024,5.024,0,0,0,18.163,47a7.006,7.006,0,0,0-3.679.347,12.9,12.9,0,0,0-2.87,1.214,17.585,17.585,0,0,0-3.5,2.475,16.718,16.718,0,0,1-2.57,2.192,4.063,4.063,0,0,1-1.939.583,1.109,1.109,0,0,1-.746-.2,1.251,1.251,0,0,1-.389-.741,2.312,2.312,0,0,1-.047-.9,5.256,5.256,0,0,1,.8-2.1,24.3,24.3,0,0,1,5.3-4.7,68.594,68.594,0,0,0,5.781-4.856,11.762,11.762,0,0,0,3.632-4.588,8.444,8.444,0,0,0,.8-5.75,10.511,10.511,0,0,0-1.5-2.906,26.346,26.346,0,0,0-1.945-2.423,22.3,22.3,0,0,1-2.6-3.679,13.838,13.838,0,0,1-1.43-5.676A17.606,17.606,0,0,1,11.72,9.83a13.538,13.538,0,0,0-1.577,5.644c0,.047,0,.116,0,.2a13.875,13.875,0,0,0,.61,4.5,15.1,15.1,0,0,0,1.277,2.812c1.876,3.511,2.98,4.01,3.463,6.307a9.281,9.281,0,0,1,.158,2.628,9.723,9.723,0,0,1-.878,3.2,10.548,10.548,0,0,1-1.824,2.954,44.672,44.672,0,0,1-6.99,6.223A18.121,18.121,0,0,0,1.986,47.97,7.05,7.05,0,0,0-.005,52.321a4.052,4.052,0,0,0,0,.441,5.592,5.592,0,0,0,.384,1.671c.914,2.223,4.7,3.437,4.7,3.437,2.628.846,9.124,2.144,18.352.252,6.885-1.414,11.562-3.837,13.559-4.383a2.691,2.691,0,0,0,.767-.331,3.39,3.39,0,0,0,1.167-1.351,6.611,6.611,0,0,0,.426-.993ZM13.5,55.243c-2.775.294-3.3.315-3.679.331a31.089,31.089,0,0,1-3.605-.11l-.967-.047s5.539-4.935,8.8-5.555a5.082,5.082,0,0,1,3.584.289,4.057,4.057,0,0,1,1.4,1.351,2.186,2.186,0,0,1,.426,1.75,1.577,1.577,0,0,1-.236.426C18.389,54.7,15.1,55.07,13.5,55.243Z" transform="translate(9.01 -3.83)" fill="#fff"/></g></g></svg>