<?xml version="1.0" encoding="iso-8859-1"?>
<!-- Generator: Adobe Illustrator 16.0.0, SVG Export Plug-In . SVG Version: 6.00 Build 0)  -->
<!DOCTYPE svg PUBLIC "-//W3C//DTD SVG 1.1//EN" "http://www.w3.org/Graphics/SVG/1.1/DTD/svg11.dtd">
<svg version="1.1" id="Capa_1" xmlns="http://www.w3.org/2000/svg" xmlns:xlink="http://www.w3.org/1999/xlink" x="0px" y="0px"
	 width="400px" height="400px" viewBox="0 0 400 400" style="enable-background:new 0 0 400 400;" xml:space="preserve">
<g>
	<g>
		<g>
			<path d="M200,0C89.72,0,0,89.72,0,200c0,110.279,89.72,200,200,200c110.28,0,200-89.721,200-200C400,89.72,310.28,0,200,0z
				 M200,351.22c-83.384,0-151.22-67.837-151.22-151.22S116.616,48.78,200,48.78c83.383,0,151.22,67.837,151.22,151.22
				S283.383,351.22,200,351.22z"/>
			<path d="M279.824,169.128h-48.952v-48.952c0-4.21-3.414-7.624-7.624-7.624h-46.496c-4.211,0-7.624,3.414-7.624,7.624v48.952
				h-48.952c-4.21,0-7.624,3.413-7.624,7.624v46.496c0,4.21,3.414,7.624,7.624,7.624h48.952v48.952c0,4.21,3.413,7.623,7.624,7.623
				h46.496c4.21,0,7.624-3.413,7.624-7.623v-48.952h48.952c4.21,0,7.624-3.413,7.624-7.624v-46.496
				C287.448,172.542,284.034,169.128,279.824,169.128z"/>
		</g>
	</g>
</g>
<g>
</g>
<g>
</g>
<g>
</g>
<g>
</g>
<g>
</g>
<g>
</g>
<g>
</g>
<g>
</g>
<g>
</g>
<g>
</g>
<g>
</g>
<g>
</g>
<g>
</g>
<g>
</g>
<g>
</g>
</svg>
