<?xml version="1.0" ?><svg width="512px" height="512px" viewBox="0 0 512 512" style="enable-background:new 0 0 512 512;" version="1.1" xml:space="preserve" xmlns="http://www.w3.org/2000/svg" xmlns:xlink="http://www.w3.org/1999/xlink"><style type="text/css">
	.st0{fill:#333333;}
</style><g id="Layer_1"/><g id="Layer_2"><g><path class="st0" d="M446.81,275.82H236.18V65.19c0-20.78-16.91-37.69-37.69-37.69H65.19c-20.78,0-37.69,16.91-37.69,37.69v255.32    c0,20.78,16.91,37.68,37.69,37.68h88.62v88.62c0,20.78,16.9,37.69,37.68,37.69h255.32c20.78,0,37.69-16.91,37.69-37.69v-133.3    C484.5,292.73,467.59,275.82,446.81,275.82z M65.19,326.19c-3.14,0-5.69-2.55-5.69-5.68V65.19c0-3.14,2.55-5.69,5.69-5.69h133.3    c3.14,0,5.69,2.55,5.69,5.69v210.63h-12.69c-20.78,0-37.68,16.91-37.68,37.69v12.68H65.19z M452.5,446.81    c0,3.14-2.55,5.69-5.69,5.69H191.49c-3.13,0-5.68-2.55-5.68-5.69V342.19v-28.68c0-2.94,2.24-5.37,5.1-5.66    c0.19-0.02,0.38-0.03,0.58-0.03h28.69h226.63c3.14,0,5.69,2.55,5.69,5.69V446.81z"/><path class="st0" d="M369.92,181.53c-6.25-6.25-16.38-6.25-22.63,0c-6.25,6.25-6.25,16.38,0,22.63l44.39,44.39    c3.12,3.13,7.22,4.69,11.31,4.69c0.21,0,0.42-0.02,0.63-0.03c0.2,0.01,0.4,0.03,0.6,0.03c6.31,0,11.74-3.66,14.35-8.96    l37.86-37.86c6.25-6.25,6.25-16.38,0-22.63c-6.25-6.25-16.38-6.25-22.63,0l-13.59,13.59v-86.58c0-8.84-7.16-16-16-16h-86.29    l15.95-15.95c6.25-6.25,6.25-16.38,0-22.63c-6.25-6.25-16.38-6.25-22.63,0l-40.33,40.33c-5.19,2.65-8.75,8.03-8.75,14.25    c0,0.19,0.02,0.37,0.03,0.56c-0.01,0.19-0.03,0.38-0.03,0.57c0,4.24,1.69,8.31,4.69,11.31l42.14,42.14    c3.12,3.12,7.22,4.69,11.31,4.69s8.19-1.56,11.31-4.69c6.25-6.25,6.25-16.38,0-22.63l-15.95-15.95h72.54v73.05L369.92,181.53z"/></g></g></svg>