<?xml version="1.0" encoding="iso-8859-1"?>
<!-- Generator: Adobe Illustrator 19.0.0, SVG Export Plug-In . SVG Version: 6.00 Build 0)  -->
<svg version="1.1" id="Layer_1" xmlns="http://www.w3.org/2000/svg" xmlns:xlink="http://www.w3.org/1999/xlink" x="0px" y="0px"
	 viewBox="0 0 473.931 473.931" style="enable-background:new 0 0 473.931 473.931;" xml:space="preserve">
<circle style="fill:#357180;" cx="236.966" cy="236.966" r="236.966"/>
<g>
	<ellipse style="fill:#7AC3A7;" cx="305.402" cy="275.326" rx="54.88" ry="51.764"/>
	<rect x="168.192" y="223.57" style="fill:#7AC3A7;" width="139.68" height="103.52"/>
</g>
<ellipse style="fill:#93D1BD;" cx="168.192" cy="275.326" rx="54.88" ry="51.764"/>
<ellipse style="fill:#B7DFD2;" cx="168.192" cy="275.326" rx="17.463" ry="16.471"/>
<path style="fill:#F0F1AF;" d="M360.275,275.955c0-27.79-23.24-54.263-52.377-55.498l-149.678-0.123
	c30.308,0,64.86,27.038,64.86,55.621c0,15.236,0.176,35.341,0.344,50.806c-0.007,0.12-0.037,0.236-0.037,0.359v29.227
	c0,7.244,5.867,13.115,13.111,13.115h110.098c7.237,0,13.111-5.871,13.111-13.115V327.12c0-0.367-0.079-0.703-0.108-1.059
	C359.924,310.562,360.275,290.656,360.275,275.955z"/>
<path style="fill:#E9E8A3;" d="M360.275,275.955c0-27.79-23.24-54.263-52.377-55.498l-149.678-0.123
	c30.308,0,64.86,27.038,64.86,55.621H360.275z"/>
<g>
	<ellipse style="fill:#7AC3A7;" cx="305.402" cy="171.186" rx="54.88" ry="51.767"/>
	<rect x="168.192" y="119.437" style="fill:#7AC3A7;" width="139.68" height="103.52"/>
</g>
<path style="fill:#6FB698;" d="M360.275,171.182l-192.072,0.004v51.764h139.695v-0.123
	C337.035,221.587,360.275,198.976,360.275,171.182z"/>
<ellipse style="fill:#93D1BD;" cx="168.192" cy="171.186" rx="54.88" ry="51.767"/>
<ellipse style="fill:#B7DFD2;" cx="168.192" cy="171.186" rx="17.463" ry="16.471"/>
<g>
</g>
<g>
</g>
<g>
</g>
<g>
</g>
<g>
</g>
<g>
</g>
<g>
</g>
<g>
</g>
<g>
</g>
<g>
</g>
<g>
</g>
<g>
</g>
<g>
</g>
<g>
</g>
<g>
</g>
</svg>
