<?xml version="1.0" ?><svg width="512px" height="512px" viewBox="0 0 512 512" style="enable-background:new 0 0 512 512;" version="1.1" xml:space="preserve" xmlns="http://www.w3.org/2000/svg" xmlns:xlink="http://www.w3.org/1999/xlink"><style type="text/css">
	.st0{fill:#333333;}
	.st1{fill:none;stroke:#333333;stroke-width:32;stroke-linecap:round;stroke-linejoin:round;stroke-miterlimit:10;}
</style><g id="Layer_1"/><g id="Layer_2"><g><g><path class="st0" d="M73.68,456.11L73.68,456.11c-16.67,0-30.18-13.51-30.18-30.18V314.37c0-16.67,13.51-30.18,30.18-30.18h0     c16.67,0,30.18,13.51,30.18,30.18v111.56C103.87,442.6,90.35,456.11,73.68,456.11z"/></g><g><path class="st0" d="M195.23,456.11L195.23,456.11c-16.67,0-30.18-13.51-30.18-30.18V245.95c0-16.67,13.51-30.18,30.18-30.18h0     c16.67,0,30.18,13.51,30.18,30.18v179.98C225.41,442.6,211.9,456.11,195.23,456.11z"/></g><g><path class="st0" d="M316.77,456.11L316.77,456.11c-16.67,0-30.18-13.51-30.18-30.18V171.86c0-16.67,13.51-30.18,30.18-30.18h0     c16.67,0,30.18,13.51,30.18,30.18v254.07C346.96,442.6,333.44,456.11,316.77,456.11z"/></g><g><path class="st0" d="M438.32,456.11L438.32,456.11c-16.67,0-30.18-13.51-30.18-30.18V86.07c0-16.67,13.51-30.18,30.18-30.18h0     c16.67,0,30.18,13.51,30.18,30.18v339.86C468.5,442.6,454.99,456.11,438.32,456.11z"/></g></g></g></svg>