<svg xmlns="http://www.w3.org/2000/svg" width="30" height="26.761" viewBox="0 0 30 26.761"><path d="M131.84,150.949a8.7,8.7,0,0,0-12.31,0l-.14.14-.141-.14a8.7,8.7,0,1,0-12.31,12.31l11.514,11.515a1.326,1.326,0,0,0,1.872,0L131.84,163.26a8.7,8.7,0,0,0,0-12.31Zm-5.775,14.992v-.007c0-.024,0-.049,0-.072s0-.037,0-.056,0-.023,0-.035,0,0,0,0c0-.043-.009-.086-.015-.129s-.009-.059-.014-.088-.006-.035-.01-.052-.013-.063-.02-.093-.01-.042-.015-.063l0-.007-.016-.059c-.008-.027-.016-.054-.025-.081s-.014-.045-.022-.067-.017-.047-.025-.07-.018-.046-.027-.069-.018-.043-.028-.065a2.575,2.575,0,0,0-.139-.271l-.034-.057c-.022-.036-.045-.071-.068-.105l-.018-.026-.028-.039-.024-.032c-.022-.029-.044-.058-.067-.086l-.027-.032c-.027-.032-.054-.064-.082-.094l-.038-.04-.043-.043-.035-.034q-.073-.071-.153-.136l.436-.194a1.9,1.9,0,0,0,2.5,0l.873.389-2.828,2.828v-.937Q126.066,165.978,126.065,165.941Zm-.9-8.158a2.554,2.554,0,0,1,3.189,0,2.16,2.16,0,0,1,.67,1.659,2.974,2.974,0,0,1-.651,1.88,2,2,0,0,1-3.228,0,2.971,2.971,0,0,1-.651-1.88A2.16,2.16,0,0,1,125.167,157.784Zm-7.926-2.573a3.53,3.53,0,0,1,4.4,0,2.976,2.976,0,0,1,.921,2.286,4.123,4.123,0,0,1-.9,2.608,2.744,2.744,0,0,1-4.441,0,4.125,4.125,0,0,1-.9-2.608A2.976,2.976,0,0,1,117.241,155.211Zm-2.37,9.346,1.393-.618,1.444-.641,1.73,2.263L121.2,163.3l1.288.574,1.533.684a1.6,1.6,0,0,1,.946,1.459v2.041l-5.573,5.573-5.467-5.467v-2.144A1.6,1.6,0,0,1,114.872,164.557Zm-4.62-6.773a2.554,2.554,0,0,1,3.189,0,2.158,2.158,0,0,1,.67,1.659,2.971,2.971,0,0,1-.651,1.88,2,2,0,0,1-3.227,0,2.971,2.971,0,0,1-.651-1.88A2.158,2.158,0,0,1,110.252,157.784Zm.334,5.951a1.9,1.9,0,0,0,2.5,0l.62.276-.017.016q-.06.055-.116.114l-.026.027c-.023.025-.046.05-.068.076l-.028.032-.061.075-.028.035-.059.081-.026.038,0,.006-.024.036-.026.04-.019.031c-.019.031-.037.062-.054.093l-.021.039,0,.007-.02.038-.021.043-.021.043-.02.044c-.034.077-.064.155-.091.235,0,.01-.007.02-.01.031s-.013.039-.018.059l-.015.052c-.007.025-.013.05-.02.076s-.008.035-.012.053,0,.017-.005.025-.008.036-.011.054l0,.017c0,.02-.007.04-.01.061-.007.044-.013.089-.018.133,0,.009,0,.018,0,.027s0,.033,0,.05a.034.034,0,0,0,0,.006c0,.047-.007.094-.008.142q0,.036,0,.073v1.04l-2.986-2.986Z" transform="translate(-104.39 -148.4)" fill="#03716e"/></svg>